<?xml version="1.0" encoding="UTF-8" standalone="no"?>
<svg
   xmlns:dc="http://purl.org/dc/elements/1.1/"
   xmlns:cc="http://creativecommons.org/ns#"
   xmlns:rdf="http://www.w3.org/1999/02/22-rdf-syntax-ns#"
   xmlns:svg="http://www.w3.org/2000/svg"
   xmlns="http://www.w3.org/2000/svg"
   xmlns:sodipodi="http://sodipodi.sourceforge.net/DTD/sodipodi-0.dtd"
   xmlns:inkscape="http://www.inkscape.org/namespaces/inkscape"
   inkscape:export-ydpi="96"
   inkscape:export-xdpi="96"
   inkscape:export-filename="C:\Users\Aragorn\OneDrive\Amazon Redirect\icon48.png"
   height="48"
   width="48"
   version="1.1"
   id="svg4"
   sodipodi:docname="icon.svg"
   inkscape:version="1.0 (4035a4fb49, 2020-05-01)">
  <metadata
     id="metadata10">
    <rdf:RDF>
      <cc:Work
         rdf:about="">
        <dc:format>image/svg+xml</dc:format>
        <dc:type
           rdf:resource="http://purl.org/dc/dcmitype/StillImage" />
        <dc:title></dc:title>
      </cc:Work>
    </rdf:RDF>
  </metadata>
  <defs
     id="defs8" />
  <sodipodi:namedview
     inkscape:pagecheckerboard="true"
     inkscape:document-rotation="0"
     pagecolor="#ffffff"
     bordercolor="#666666"
     borderopacity="1"
     objecttolerance="10"
     gridtolerance="10"
     guidetolerance="10"
     inkscape:pageopacity="0"
     inkscape:pageshadow="2"
     inkscape:window-width="1920"
     inkscape:window-height="1010"
     id="namedview6"
     showgrid="false"
     inkscape:zoom="17.541667"
     inkscape:cx="22.745843"
     inkscape:cy="22.821853"
     inkscape:window-x="-6"
     inkscape:window-y="-6"
     inkscape:window-maximized="1"
     inkscape:current-layer="layer1" />
  <g
     style="display:inline"
     inkscape:label="background"
     id="layer1"
     inkscape:groupmode="layer">
    <rect
       y="0"
       x="0"
       height="48"
       width="48"
       id="rect9"
       style="fill:#ff9900;fill-opacity:1;stroke-width:3.77509" />
  </g>
  <g
     inkscape:label="foreground"
     id="layer2"
     inkscape:groupmode="layer">
    <path
       d="M24 34.95q3.3 0 6.075-1.775Q32.85 31.4 34.1 28.35H13.9q1.3 3.05 4.05 4.825Q20.7 34.95 24 34.95Zm-8.9-13.6 2.25-2.25 2.25 2.25 1.8-1.8-4.05-4.05-4.05 4.05Zm13.35 0 2.25-2.25 2.25 2.25 1.8-1.8-4.05-4.05-4.05 4.05ZM24 44q-4.15 0-7.8-1.575-3.65-1.575-6.35-4.275-2.7-2.7-4.275-6.35Q4 28.15 4 24t1.575-7.8Q7.15 12.55 9.85 9.85q2.7-2.7 6.35-4.275Q19.85 4 24 4t7.8 1.575q3.65 1.575 6.35 4.275 2.7 2.7 4.275 6.35Q44 19.85 44 24t-1.575 7.8q-1.575 3.65-4.275 6.35-2.7 2.7-6.35 4.275Q28.15 44 24 44Zm0-20Zm0 17q7.1 0 12.05-4.95Q41 31.1 41 24q0-7.1-4.95-12.05Q31.1 7 24 7q-7.1 0-12.05 4.95Q7 16.9 7 24q0 7.1 4.95 12.05Q16.9 41 24 41Z"
       id="path2" />
    <path
       style="fill:#ffffff;stroke-width:0.228029"
       d="M 22.664207,40.925722 C 19.276749,40.697126 16.158795,39.49563 13.510689,37.398439 12.741514,36.789284 11.210716,35.258486 10.601561,34.489311 9.115269,32.612582 8.0848737,30.523174 7.5267029,28.254194 c -0.6565386,-2.668846 -0.6565386,-5.839542 0,-8.508388 0.5566641,-2.262855 1.6312839,-4.43572 3.1118551,-6.292124 0.548472,-0.687698 2.165336,-2.293621 2.872131,-2.852695 1.880834,-1.4877385 3.96693,-2.5163082 6.235117,-3.0742841 2.165744,-0.5327751 4.773786,-0.6398119 7.048424,-0.2892747 2.856938,0.4402738 5.485789,1.5936486 7.752088,3.4011298 0.687698,0.548472 2.293621,2.165336 2.852695,2.872131 1.490831,1.884743 2.515149,3.962215 3.074284,6.235117 0.90989,3.698727 0.543532,8.042851 -0.951022,11.276833 -0.90383,1.955746 -1.899337,3.3667 -3.516136,4.9835 -1.511292,1.511292 -2.738398,2.402339 -4.509702,3.274662 -2.681808,1.320722 -5.595404,1.863353 -8.83223,1.644921 z m 2.760971,-6.04262 c 1.174896,-0.125576 2.522839,-0.537303 3.668084,-1.120411 2.181423,-1.110684 3.756101,-2.703379 4.776916,-4.831575 l 0.273443,-0.570071 -5.071811,-0.01456 c -2.789496,-0.008 -7.355248,-0.008 -10.146116,0 l -5.074307,0.01456 0.334861,0.662507 c 1.001867,1.982143 2.593055,3.603448 4.573856,4.660427 2.011019,1.073104 4.184902,1.46421 6.665074,1.199123 z M 16.247044,20.26602 17.3576,19.154368 l 1.126583,1.125527 1.126584,1.125527 0.925947,-0.925948 0.925948,-0.925948 -2.023191,-2.023794 c -1.112756,-1.113087 -2.049116,-2.023794 -2.080801,-2.023794 -0.03168,0 -0.967945,0.910606 -2.080577,2.02357 l -2.022967,2.023568 0.910961,0.912299 c 0.501029,0.501763 0.924335,0.912297 0.940682,0.912297 0.01634,0 0.529469,-0.500243 1.140275,-1.111652 z m 13.339667,0 1.110556,-1.111652 1.126584,1.125527 1.126583,1.125527 0.925948,-0.925948 0.925948,-0.925948 -2.023192,-2.023794 c -1.112755,-1.113087 -2.049116,-2.023794 -2.080801,-2.023794 -0.03168,0 -0.967944,0.910606 -2.080576,2.02357 l -2.022967,2.023568 0.910961,0.912299 c 0.501028,0.501763 0.924335,0.912297 0.940681,0.912297 0.01635,0 0.52947,-0.500243 1.140275,-1.111652 z"
       id="path14" />
    <path
       style="fill:#ffffff;stroke-width:0.228029"
       d="M 22.261283,40.870783 C 18.979565,40.536625 16.030431,39.348937 13.510689,37.346708 12.828583,36.804695 11.225512,35.201794 10.652817,34.489138 8.2854717,31.543242 7.0700599,27.984914 7.0700599,24 c 0,-3.962827 1.2244764,-7.559534 3.5710201,-10.489311 0.531648,-0.663789 2.223475,-2.344609 2.907223,-2.888307 2.598155,-2.0659869 5.506663,-3.1971671 9.00729,-3.503126 1.006211,-0.087944 3.033582,-0.030229 3.98302,0.1133885 2.926913,0.4427413 5.348246,1.4472552 7.637159,3.1683505 0.807233,0.606982 2.525145,2.294256 3.195531,3.138542 2.359496,2.97156 3.558637,6.486778 3.558637,10.431959 0,3.482766 -0.914219,6.630934 -2.706694,9.320666 -1.172425,1.759303 -3.174052,3.756101 -4.959588,4.947622 -0.755138,0.503917 -2.440723,1.350866 -3.36342,1.690004 -0.91906,0.337801 -2.256521,0.674981 -3.306414,0.833563 -0.909503,0.137376 -3.42571,0.199769 -4.332541,0.107432 z m 2.736342,-5.926118 c 1.402731,-0.114636 2.705367,-0.476607 3.989648,-1.108625 1.763742,-0.867971 3.102344,-2.015496 4.125665,-3.536753 0.365949,-0.544015 1.03433,-1.775123 1.03433,-1.905159 0,-0.04388 -2.917402,-0.06159 -10.147268,-0.06159 -7.68777,0 -10.147268,0.0161 -10.147268,0.06645 0,0.107026 0.616506,1.232853 0.950697,1.736106 1.337438,2.01403 3.314365,3.51999 5.633626,4.291514 1.468171,0.488401 2.913904,0.652629 4.56057,0.518057 z m -4.417404,-14.4535 0.939969,-0.943513 -2.035404,-2.020857 c -1.119473,-1.111471 -2.07564,-2.020857 -2.124816,-2.020857 -0.04918,0 -1.005928,0.910072 -2.126115,2.022382 l -2.036705,2.022382 0.918835,0.913485 c 0.50536,0.502417 0.95158,0.913485 0.991602,0.913485 0.04002,0 0.563702,-0.486842 1.163736,-1.08187 l 1.090971,-1.081871 1.109279,1.110374 c 0.610103,0.610706 1.122643,1.110374 1.138978,1.110374 0.01633,0 0.452686,-0.424581 0.96967,-0.943514 z m 13.339667,0 0.939969,-0.943513 -2.035404,-2.020857 c -1.119472,-1.111471 -2.075639,-2.020857 -2.124815,-2.020857 -0.04918,0 -1.005928,0.910072 -2.126116,2.022382 l -2.036705,2.022382 0.918836,0.913485 c 0.505359,0.502417 0.95158,0.913485 0.991601,0.913485 0.04002,0 0.563703,-0.486842 1.163737,-1.08187 l 1.09097,-1.081871 1.109279,1.110374 c 0.610103,0.610706 1.122644,1.110374 1.138979,1.110374 0.01633,0 0.452686,-0.424581 0.969669,-0.943514 z"
       id="path16" />
  </g>
</svg>
